<svg width="81" height="81" xmlns="http://www.w3.org/2000/svg" xmlns:xlink="http://www.w3.org/1999/xlink" overflow="hidden"><g transform="translate(-10 -10)"><path d="M16.5001 24.5003C16.5001 18.9773 20.9773 14.5001 26.5003 14.5001L27.1667 14.5001 27.1667 14.5001 43.1667 14.5001 70.4998 14.5001C76.0228 14.5001 80.5 18.9773 80.5 24.5003L80.5 49.5001 80.5 49.5001 80.5 64.5 80.5 64.4998C80.5 70.0228 76.0228 74.5 70.4998 74.5L43.1667 74.5 24.0604 80.0105 27.1667 74.5 26.5003 74.5C20.9773 74.5 16.5001 70.0228 16.5001 64.4998L16.5001 64.5 16.5001 49.5001 16.5001 49.5001Z" stroke="#000000" stroke-width="1.33333" stroke-miterlimit="8" fill="none" fill-rule="evenodd"/><text font-family="Noto Sans JP Black,Noto Sans JP Black_MSFontService,sans-serif" font-weight="900" font-size="24" transform="translate(25.4999 41)">M</text><text font-family="Noto Sans JP Black,Noto Sans JP Black_MSFontService,sans-serif" font-weight="900" font-size="24" transform="translate(46.4999 41)">↓</text><text font-family="Noto Sans JP Black,Noto Sans JP Black_MSFontService,sans-serif" font-weight="900" font-size="24" transform="translate(70.4999 41)"></text><text font-family="Noto Sans JP Black,Noto Sans JP Black_MSFontService,sans-serif" font-weight="900" font-size="24" transform="translate(39.9999 70)">C</text><text font-family="Noto Sans JP Black,Noto Sans JP Black_MSFontService,sans-serif" font-weight="900" font-size="24" transform="translate(55.9999 70)"></text></g></svg>